<svg width="148" height="20" viewBox="0 0 148 20" fill="none" xmlns="http://www.w3.org/2000/svg">
<path d="M0 18.3545V1.699C0 1.33333 0.124124 1.02564 0.372373 0.77592C0.620622 0.526198 0.917635 0.401338 1.26341 0.401338H8.69758C12.5454 0.401338 15.3427 1.17726 17.0893 2.7291C18.8448 4.27202 19.7225 6.69788 19.7225 10.0067C19.7225 13.3066 18.8448 15.728 17.0893 17.2709C15.3427 18.8138 12.5454 19.5853 8.69758 19.5853H1.26341C0.917635 19.5853 0.620622 19.4693 0.372373 19.2375C0.124124 18.9967 0 18.7023 0 18.3545ZM5.01374 15.7993H8.55129C10.9363 15.7993 12.5587 15.3623 13.4187 14.4883C14.2787 13.6143 14.7088 12.1204 14.7088 10.0067C14.7088 7.88406 14.2787 6.38573 13.4187 5.51171C12.5587 4.62876 10.9363 4.18729 8.55129 4.18729H5.01374V15.7993Z" fill="white"/>
<path d="M22.4488 18.301V1.64548C22.4488 1.29766 22.5729 1.00334 22.8212 0.762542C23.0694 0.521739 23.3664 0.401338 23.7122 0.401338H39.046C39.3918 0.401338 39.6844 0.526198 39.9237 0.77592C40.172 1.02564 40.2961 1.32441 40.2961 1.67224V2.92977C40.2961 3.27759 40.172 3.57637 39.9237 3.82609C39.6844 4.06689 39.3918 4.18729 39.046 4.18729H27.4625V8.08027H37.4368C37.7826 8.08027 38.0752 8.20513 38.3146 8.45485C38.5628 8.69565 38.6869 8.98997 38.6869 9.33779V10.5953C38.6869 10.9431 38.5628 11.2419 38.3146 11.4916C38.0752 11.7324 37.7826 11.8528 37.4368 11.8528H27.4625V15.7993H39.0194C39.3563 15.7993 39.6445 15.9197 39.8839 16.1605C40.1232 16.4013 40.2429 16.6957 40.2429 17.0435V18.3278C40.2429 18.6756 40.1188 18.9744 39.8706 19.2241C39.6223 19.4649 39.3253 19.5853 38.9795 19.5853H23.7122C23.3664 19.5853 23.0694 19.4649 22.8212 19.2241C22.5729 18.9744 22.4488 18.6667 22.4488 18.301Z" fill="white"/>
<path d="M41.2005 1.52508C41.1473 1.41806 41.1207 1.30212 41.1207 1.17726C41.1207 1.04348 41.2005 0.882943 41.36 0.695652C41.5285 0.499443 41.7635 0.401338 42.0649 0.401338H44.9774C45.6689 0.401338 46.1965 0.824972 46.56 1.67224L51.7067 13.204L56.8534 1.67224C57.2169 0.833891 57.7445 0.410256 58.436 0.401338H61.3485C61.6588 0.401338 61.8938 0.499443 62.0534 0.695652C62.213 0.882943 62.2928 1.04348 62.2928 1.17726C62.2928 1.30212 62.2706 1.41806 62.2263 1.52508L54.566 18.2207C54.1493 19.1304 53.5154 19.5853 52.6642 19.5853H50.7492C49.898 19.5853 49.2641 19.1304 48.8474 18.2207L41.2005 1.52508Z" fill="white"/>
<path d="M81.6695 17.6054C79.8608 19.2018 77.201 20 73.69 20C70.188 20 67.5281 19.2018 65.7106 17.6054C63.8931 16 62.9843 13.4627 62.9843 9.99331C62.9843 6.52397 63.8931 3.99108 65.7106 2.39465C67.5281 0.798216 70.188 0 73.69 0C77.201 0 79.8608 0.798216 81.6695 2.39465C83.487 3.99108 84.3958 6.52397 84.3958 9.99331C84.3958 13.4627 83.487 16 81.6695 17.6054ZM78.0388 5.21739C77.1434 4.14716 75.6938 3.61204 73.69 3.61204C71.6952 3.61204 70.2456 4.14716 69.3412 5.21739C68.4458 6.28763 67.998 7.88406 67.998 10.0067C67.998 12.1204 68.4458 13.7124 69.3412 14.7826C70.2456 15.8439 71.6952 16.3746 73.69 16.3746C75.6938 16.3746 77.1434 15.8439 78.0388 14.7826C78.9343 13.7124 79.382 12.1204 79.382 10.0067C79.382 7.88406 78.9343 6.28763 78.0388 5.21739Z" fill="white"/>
<path d="M87.1354 18.3278V1.67224C87.1354 1.32441 87.2551 1.02564 87.4945 0.77592C87.7338 0.526198 88.0264 0.401338 88.3722 0.401338H98.5194C103.883 0.401338 106.565 2.88963 106.565 7.86622C106.565 12.8339 103.883 15.3177 98.5194 15.3177H92.1491V18.3278C92.1491 18.6756 92.025 18.9744 91.7767 19.2241C91.5374 19.4649 91.2448 19.5853 90.899 19.5853H88.3988C88.053 19.5853 87.756 19.4649 87.5078 19.2241C87.2595 18.9744 87.1354 18.6756 87.1354 18.3278ZM92.1491 11.5318H97.0033C98.4928 11.5318 99.6232 11.2821 100.395 10.7826C101.166 10.2742 101.552 9.30212 101.552 7.86622C101.552 6.4214 101.166 5.44927 100.395 4.94983C99.6232 4.44147 98.4928 4.18729 97.0033 4.18729H92.1491V11.5318Z" fill="white"/>
<path d="M107.935 14.6756C107.935 14.1494 108.09 13.7748 108.401 13.5518C108.711 13.32 109.012 13.204 109.305 13.204H110.887C111.685 13.204 112.293 13.641 112.709 14.515C113.126 15.3891 114.062 15.8261 115.516 15.8261L120.17 15.9197C121.731 15.9197 122.511 15.4069 122.511 14.3813C122.511 13.6054 121.558 12.9944 119.652 12.5485C118.8 12.3434 117.861 12.1427 116.832 11.9465C115.804 11.7414 114.78 11.4872 113.76 11.1839C112.749 10.8807 111.818 10.524 110.967 10.1137C110.116 9.70346 109.425 9.14158 108.893 8.42809C108.37 7.70568 108.108 6.85842 108.108 5.88629C108.108 4.09365 108.742 2.71572 110.01 1.75251C111.278 0.780379 113.459 0.294314 116.553 0.294314L119.931 0.374582C121.748 0.374582 123.384 0.847269 124.838 1.79264C126.301 2.7291 127.033 3.9019 127.033 5.31104C127.033 5.83724 126.877 6.21628 126.567 6.44816C126.257 6.68004 125.96 6.79599 125.676 6.79599H124.093C123.296 6.79599 122.688 6.35897 122.271 5.48495C121.855 4.60201 120.919 4.16053 119.465 4.16053L115.462 4.08027C113.902 4.08027 113.122 4.59309 113.122 5.61873C113.122 6.1806 113.614 6.63991 114.598 6.99666C115.591 7.3534 116.788 7.67001 118.189 7.94649C119.598 8.21405 121.013 8.53958 122.431 8.92308C123.85 9.30658 125.051 9.9398 126.035 10.8227C127.028 11.6968 127.525 12.7893 127.525 14.1003C127.525 15.893 126.886 17.2754 125.61 18.2475C124.342 19.2107 122.165 19.6923 119.08 19.6923L115.05 19.612C113.233 19.612 111.592 19.1438 110.129 18.2074C108.667 17.262 107.935 16.0847 107.935 14.6756Z" fill="white"/>
<path d="M128.894 17.9732V16.3813C128.894 16.1405 128.97 15.9443 129.12 15.7926C129.28 15.6321 129.475 15.5518 129.706 15.5518H139.733C139.973 15.5518 140.168 15.6321 140.318 15.7926C140.478 15.9443 140.558 16.1405 140.558 16.3813V17.9732C140.558 18.214 140.478 18.4103 140.318 18.5619C140.168 18.7135 139.973 18.7893 139.733 18.7893H129.706C129.466 18.7893 129.271 18.7135 129.12 18.5619C128.97 18.4103 128.894 18.214 128.894 17.9732Z" fill="white"/>
<path d="M139.276 5.07026C139.169 4.91865 139.116 4.74027 139.116 4.53515C139.116 4.33002 139.263 4.10259 139.555 3.85287L142.8 1.04351C143.27 0.624333 143.922 0.410286 144.755 0.401367H146.71C147.073 0.401367 147.379 0.526228 147.628 0.775949C147.876 1.02567 148 1.32444 148 1.67227V18.3278C148 18.6756 147.871 18.9744 147.614 19.2241C147.357 19.4649 147.056 19.5853 146.71 19.5853H144.236C143.891 19.5853 143.594 19.4694 143.345 19.2375C143.106 18.9967 142.986 18.7024 142.986 18.3545V5.41809L141.457 6.54183C141.28 6.66669 141.076 6.70683 140.845 6.66224C140.615 6.61764 140.428 6.51508 140.287 6.35454L139.276 5.07026Z" fill="#D81E5B"/>
</svg>
